<svg id="visual" viewBox="0 0 1980 1080" width="1980" height="1080" xmlns="http://www.w3.org/2000/svg" xmlns:xlink="http://www.w3.org/1999/xlink" version="1.1"><rect x="0" y="0" width="1980" height="1080" fill="#931C1C"></rect><path d="M0 655L283 747L566 746L849 669L1131 729L1414 802L1697 670L1980 756L1980 1081L1697 1081L1414 1081L1131 1081L849 1081L566 1081L283 1081L0 1081Z" fill="#f5730a"></path><path d="M0 747L283 844L566 814L849 717L1131 758L1414 830L1697 831L1980 796L1980 1081L1697 1081L1414 1081L1131 1081L849 1081L566 1081L283 1081L0 1081Z" fill="#da5b09"></path><path d="M0 908L283 797L566 848L849 804L1131 852L1414 811L1697 897L1980 881L1980 1081L1697 1081L1414 1081L1131 1081L849 1081L566 1081L283 1081L0 1081Z" fill="#be4407"></path><path d="M0 974L283 959L566 931L849 916L1131 893L1414 928L1697 872L1980 876L1980 1081L1697 1081L1414 1081L1131 1081L849 1081L566 1081L283 1081L0 1081Z" fill="#a32d04"></path><path d="M0 985L283 1032L566 1024L849 945L1131 962L1414 1021L1697 1014L1980 1020L1980 1081L1697 1081L1414 1081L1131 1081L849 1081L566 1081L283 1081L0 1081Z" fill="#871400"></path></svg>