<svg id="visual" viewBox="0 0 1980 1080" width="1980" height="1080" xmlns="http://www.w3.org/2000/svg" xmlns:xlink="http://www.w3.org/1999/xlink" version="1.1"><path d="M0 379L30 370C60 361 120 343 180 343C240 343 300 361 360 355.7C420 350.3 480 321.7 540 309C600 296.3 660 299.7 720 296C780 292.3 840 281.7 900 290.7C960 299.7 1020 328.3 1080 346.3C1140 364.3 1200 371.7 1260 366.3C1320 361 1380 343 1440 357.3C1500 371.7 1560 418.3 1620 422C1680 425.7 1740 386.3 1800 355.8C1860 325.3 1920 303.7 1950 292.8L1980 282L1980 0L1950 0C1920 0 1860 0 1800 0C1740 0 1680 0 1620 0C1560 0 1500 0 1440 0C1380 0 1320 0 1260 0C1200 0 1140 0 1080 0C1020 0 960 0 900 0C840 0 780 0 720 0C660 0 600 0 540 0C480 0 420 0 360 0C300 0 240 0 180 0C120 0 60 0 30 0L0 0Z" fill="#6198ff"></path><path d="M0 498L30 498C60 498 120 498 180 501.5C240 505 300 512 360 495.8C420 479.7 480 440.3 540 429.7C600 419 660 437 720 437C780 437 840 419 900 417.2C960 415.3 1020 429.7 1080 447.7C1140 465.7 1200 487.3 1260 492.7C1320 498 1380 487 1440 492.3C1500 497.7 1560 519.3 1620 521.2C1680 523 1740 505 1800 472.7C1860 440.3 1920 393.7 1950 370.3L1980 347L1980 280L1950 290.8C1920 301.7 1860 323.3 1800 353.8C1740 384.3 1680 423.7 1620 420C1560 416.3 1500 369.7 1440 355.3C1380 341 1320 359 1260 364.3C1200 369.7 1140 362.3 1080 344.3C1020 326.3 960 297.7 900 288.7C840 279.7 780 290.3 720 294C660 297.7 600 294.3 540 307C480 319.7 420 348.3 360 353.7C300 359 240 341 180 341C120 341 60 359 30 368L0 377Z" fill="#3c80ff"></path><path d="M0 681L30 688.3C60 695.7 120 710.3 180 735.7C240 761 300 797 360 800.5C420 804 480 775 540 742.5C600 710 660 674 720 677.7C780 681.3 840 724.7 900 764.3C960 804 1020 840 1080 847.2C1140 854.3 1200 832.7 1260 829C1320 825.3 1380 839.7 1440 827C1500 814.3 1560 774.7 1620 736.8C1680 699 1740 663 1800 661.3C1860 659.7 1920 692.3 1950 708.7L1980 725L1980 345L1950 368.3C1920 391.7 1860 438.3 1800 470.7C1740 503 1680 521 1620 519.2C1560 517.3 1500 495.7 1440 490.3C1380 485 1320 496 1260 490.7C1200 485.3 1140 463.7 1080 445.7C1020 427.7 960 413.3 900 415.2C840 417 780 435 720 435C660 435 600 417 540 427.7C480 438.3 420 477.7 360 493.8C300 510 240 503 180 499.5C120 496 60 496 30 496L0 496Z" fill="#0066ff"></path><path d="M0 930L30 940.8C60 951.7 120 973.3 180 973.3C240 973.3 300 951.7 360 949.8C420 948 480 966 540 960.5C600 955 660 926 720 918.8C780 911.7 840 926.3 900 942.7C960 959 1020 977 1080 987.7C1140 998.3 1200 1001.7 1260 998C1320 994.3 1380 983.7 1440 978.3C1500 973 1560 973 1620 958.7C1680 944.3 1740 915.7 1800 917.5C1860 919.3 1920 951.7 1950 967.8L1980 984L1980 723L1950 706.7C1920 690.3 1860 657.7 1800 659.3C1740 661 1680 697 1620 734.8C1560 772.7 1500 812.3 1440 825C1380 837.7 1320 823.3 1260 827C1200 830.7 1140 852.3 1080 845.2C1020 838 960 802 900 762.3C840 722.7 780 679.3 720 675.7C660 672 600 708 540 740.5C480 773 420 802 360 798.5C300 795 240 759 180 733.7C120 708.3 60 693.7 30 686.3L0 679Z" fill="#0059dd"></path><path d="M0 1081L30 1081C60 1081 120 1081 180 1081C240 1081 300 1081 360 1081C420 1081 480 1081 540 1081C600 1081 660 1081 720 1081C780 1081 840 1081 900 1081C960 1081 1020 1081 1080 1081C1140 1081 1200 1081 1260 1081C1320 1081 1380 1081 1440 1081C1500 1081 1560 1081 1620 1081C1680 1081 1740 1081 1800 1081C1860 1081 1920 1081 1950 1081L1980 1081L1980 982L1950 965.8C1920 949.7 1860 917.3 1800 915.5C1740 913.7 1680 942.3 1620 956.7C1560 971 1500 971 1440 976.3C1380 981.7 1320 992.3 1260 996C1200 999.7 1140 996.3 1080 985.7C1020 975 960 957 900 940.7C840 924.3 780 909.7 720 916.8C660 924 600 953 540 958.5C480 964 420 946 360 947.8C300 949.7 240 971.3 180 971.3C120 971.3 60 949.7 30 938.8L0 928Z" fill="#004cbb"></path></svg>